<?xml version="1.0" encoding="iso-8859-1"?>
<!-- Generator: Adobe Illustrator 19.0.0, SVG Export Plug-In . SVG Version: 6.00 Build 0)  -->
<svg version="1.1" id="Capa_1" xmlns="http://www.w3.org/2000/svg" xmlns:xlink="http://www.w3.org/1999/xlink" x="0px" y="0px"
	 viewBox="0 0 512.001 512.001" style="enable-background:new 0 0 512.001 512.001;" xml:space="preserve">
<g>
	<g>
		<path d="M479.538,393.185c-1.33-3.921-5.587-6.023-9.512-4.692c-8.526,2.893-17.583,4.299-27.686,4.299
			c-21.503,0-33.547-6.212-42.34-10.747c-7.101-3.665-10.627-5.286-19.824-5.286c-9.179,0-12.7,1.618-19.828,5.297
			c-1.087,0.562-2.245,1.159-3.482,1.774c-3.709,1.844-5.221,6.346-3.377,10.055c1.844,3.709,6.347,5.222,10.055,3.377
			c1.309-0.651,2.534-1.283,3.723-1.896c5.92-3.056,6.987-3.607,12.909-3.607c5.941,0,7.011,0.552,12.947,3.616
			c9.004,4.644,24.073,12.416,49.217,12.416c11.769,0,22.401-1.667,32.505-5.094C478.767,401.366,480.868,397.107,479.538,393.185z"
			/>
	</g>
</g>
<g>
	<g>
		<path d="M335.611,399.127c-0.388-4.124-4.048-7.149-8.17-6.763c-3.019,0.284-6.175,0.428-9.382,0.428
			c-21.505,0-33.542-6.213-42.332-10.75c-7.095-3.663-10.619-5.282-19.809-5.282c-9.179,0-12.7,1.618-19.792,5.279
			c-8.792,4.538-20.832,10.753-42.326,10.753c-21.495,0-33.531-6.215-42.32-10.754c-7.09-3.66-10.611-5.278-19.782-5.278
			c-9.171,0-12.692,1.618-19.783,5.279c-6.21,3.207-13.938,7.198-25.594,9.319c-4.075,0.742-6.778,4.646-6.036,8.722
			c0.742,4.076,4.648,6.775,8.722,6.036c13.861-2.522,23.068-7.277,29.79-10.749c5.92-3.056,6.987-3.607,12.901-3.607
			s6.981,0.551,12.9,3.606c9,4.647,24.062,12.426,49.202,12.426c25.137,0,40.204-7.778,49.208-12.425
			c5.92-3.056,6.987-3.607,12.909-3.607c5.934,0,7.001,0.551,12.929,3.611c9,4.646,24.063,12.421,49.212,12.421
			c3.675,0,7.305-0.167,10.789-0.495C332.971,406.909,335.999,403.251,335.611,399.127z"/>
	</g>
</g>
<g>
	<g>
		<path d="M56.613,391.94c-5.107-0.702-9.896-1.825-14.642-3.433c-3.925-1.33-8.182,0.772-9.51,4.696
			c-1.33,3.923,0.773,8.181,4.696,9.51c5.657,1.917,11.354,3.254,17.414,4.087c0.346,0.047,0.69,0.071,1.03,0.071
			c3.689,0,6.905-2.723,7.421-6.48C63.586,396.288,60.717,392.504,56.613,391.94z"/>
	</g>
</g>
<g>
	<g>
		<path d="M504.501,344.697c-17.361,0-26.477,4.702-34.52,8.851c-0.144,0.074-0.286,0.147-0.43,0.221l34.685-31.31
			c4.934-4.456,7.764-10.823,7.764-17.47v-8.906c0-8.556-6.96-15.516-15.516-15.516h-52.099l-57.143-85.714
			c-4.374-6.562-11.694-10.479-19.58-10.479h-87.613c-7.367,0-14.405,3.519-18.826,9.413l-16.989,22.652h-22.909l-14.323-42.968
			c-1.021-3.063-3.887-5.128-7.115-5.128h-32.064c-2.411,0-4.675,1.159-6.084,3.115c-1.41,1.956-1.793,4.47-1.031,6.757
			l12.742,38.225h-16.253l-14.323-42.968c-1.021-3.063-3.887-5.128-7.115-5.128h-32.065c-2.411,0-4.675,1.159-6.084,3.115
			c-1.41,1.956-1.793,4.47-1.031,6.757l12.742,38.225H90.897c-7.886,0-15.205,3.917-19.58,10.479L35.55,280.57h-4.002
			c-8.556,0-15.516,6.96-15.516,15.516v49.038c-2.612-0.27-5.436-0.425-8.532-0.425c-4.142,0-7.5,3.358-7.5,7.5
			c0,4.142,3.358,7.5,7.5,7.5c13.703,0,20.147,3.328,27.609,7.18c8.036,4.149,17.144,8.852,34.491,8.852
			c17.347,0,26.455-4.703,34.491-8.852c7.462-3.853,13.906-7.18,27.609-7.18c13.704,0,20.148,3.328,27.61,7.18
			c8.036,4.149,17.144,8.852,34.491,8.852c17.351,0,26.461-4.703,34.499-8.852c7.464-3.853,13.911-7.181,27.619-7.181
			c13.714,0,20.163,3.328,27.63,7.181c8.041,4.149,17.153,8.851,34.509,8.851c17.351,0,26.462-4.703,34.5-8.852
			c7.465-3.853,13.911-7.181,27.62-7.181c13.72,0,20.172,3.328,27.643,7.182c8.042,4.148,17.158,8.851,34.519,8.851
			c0.001,0,0.001,0,0.001,0h0.001h0.001c17.358-0.001,26.473-4.702,34.515-8.851c7.471-3.854,13.923-7.182,27.643-7.182
			c4.142,0,7.5-3.358,7.5-7.5C512.001,348.055,508.643,344.697,504.501,344.697z M194.481,183.341l11.032,33.097H189.26
			l-11.032-33.097H194.481z M130.353,183.341l11.032,33.097h-16.253L114.1,183.341H130.353z M64.955,263.502h303.271
			c4.142,0,7.5-3.358,7.5-7.5c0-4.142-3.358-7.5-7.5-7.5H74.955l8.843-13.265c1.586-2.379,4.24-3.8,7.1-3.8h253.28
			c4.142,0,7.5-3.358,7.5-7.5c0-4.142-3.358-7.5-7.5-7.5h-81.193l10.238-13.651c1.603-2.137,4.155-3.413,6.826-3.413h87.613
			c2.859,0,5.513,1.42,7.1,3.799l8.844,13.265h-7.361c-4.142,0-7.5,3.358-7.5,7.5c0,4.142,3.358,7.5,7.5,7.5h17.361l11.376,17.064
			h-4.69c-4.142,0-7.5,3.358-7.5,7.5c0,4.142,3.358,7.5,7.5,7.5h14.691l11.376,17.064h-26.067H95.677H53.578L64.955,263.502z
			 M408.823,304.099c0,4.705-3.828,8.532-8.532,8.532h-24.565v-17.064h24.565C404.995,295.565,408.823,299.393,408.823,304.099z
			 M360.726,295.565v17.064h-33.097v-17.064H360.726z M312.629,295.565v17.064h-33.097v-17.064H312.629z M264.532,295.565v17.064
			h-33.097v-17.064H264.532z M216.436,295.565v17.064h-33.097v-17.064H216.436z M168.339,295.565v17.064h-33.097v-17.064H168.339z
			 M120.242,295.565v17.064H95.677c-4.705,0-8.532-3.828-8.532-8.532c0-4.704,3.828-8.532,8.532-8.532H120.242z M439.514,360.673
			c-11.814-0.428-17.882-3.549-24.819-7.127c-8.042-4.148-17.158-8.851-34.519-8.851c-17.351,0-26.462,4.703-34.5,8.852
			c-7.465,3.853-13.911,7.181-27.62,7.181c-13.714,0-20.163-3.328-27.63-7.181c-8.04-4.149-17.153-8.851-34.508-8.851
			c-17.351,0-26.461,4.703-34.499,8.852c-7.464,3.853-13.911,7.181-27.618,7.181c-13.703,0-20.147-3.327-27.609-7.18
			c-8.036-4.149-17.145-8.852-34.492-8.852s-26.455,4.703-34.491,8.852c-7.462,3.853-13.906,7.18-27.609,7.18
			s-20.147-3.327-27.609-7.18c-3.302-1.705-6.797-3.499-10.959-5.027v-52.438c0-0.285,0.231-0.516,0.516-0.516h42.204
			c-1.034,2.647-1.608,5.523-1.608,8.532c0,12.976,10.557,23.532,23.532,23.532h304.613c12.976,0,23.532-10.557,23.532-23.532
			c0-3.009-0.574-5.885-1.608-8.532h74.269c0.285,0,0.516,0.231,0.516,0.516v8.905H497c0,2.41-1.026,4.719-2.815,6.333
			L439.514,360.673z"/>
	</g>
</g>
<g>
	<g>
		<path d="M119.725,136.275h-9.245c-3.514-18.243-19.599-32.065-38.852-32.065c-14.584,0-27.661,7.821-34.578,20.307
			c-3.929-2.754-8.652-4.274-13.519-4.274C10.557,120.244,0,130.799,0,143.776c0,4.143,3.358,7.5,7.5,7.5s7.5-3.358,7.5-7.5
			c0-4.705,3.828-8.533,8.532-8.533c2.428,0,4.667,0.989,6.306,2.785c2.708,2.967,6.657,4.309,10.566,3.594
			c3.813-0.699,6.945-3.275,8.377-6.892c3.737-9.428,12.705-15.52,22.848-15.52c13.545,0,24.564,11.02,24.564,24.565
			c0,4.142,3.358,7.5,7.5,7.5h16.032c4.142,0,7.5-3.358,7.5-7.5C127.225,139.633,123.867,136.275,119.725,136.275z"/>
	</g>
</g>
<g>
	<g>
		<path d="M392.274,152.309h-48.097c-4.142,0-7.5,3.358-7.5,7.5c0,4.142,3.358,7.5,7.5,7.5h48.097c4.142,0,7.5-3.358,7.5-7.5
			C399.774,155.667,396.416,152.309,392.274,152.309z"/>
	</g>
</g>
<g>
	<g>
		<path d="M440.371,152.309h-16.032c-4.142,0-7.5,3.358-7.5,7.5c0,4.142,3.358,7.5,7.5,7.5h16.032c4.142,0,7.5-3.358,7.5-7.5
			C447.871,155.667,444.513,152.309,440.371,152.309z"/>
	</g>
</g>
<g>
	<g>
		<path d="M175.839,136.276h-24.048c-4.142,0-7.5,3.358-7.5,7.5c0,4.142,3.357,7.5,7.5,7.5h24.048c4.142,0,7.5-3.358,7.5-7.5
			C183.339,139.634,179.981,136.276,175.839,136.276z"/>
	</g>
</g>
<g>
	<g>
		<path d="M71.628,168.341H39.564c-4.142,0-7.5,3.358-7.5,7.5c0,4.142,3.358,7.5,7.5,7.5h32.064c4.142,0,7.5-3.358,7.5-7.5
			C79.128,171.699,75.77,168.341,71.628,168.341z"/>
	</g>
</g>
<g>
</g>
<g>
</g>
<g>
</g>
<g>
</g>
<g>
</g>
<g>
</g>
<g>
</g>
<g>
</g>
<g>
</g>
<g>
</g>
<g>
</g>
<g>
</g>
<g>
</g>
<g>
</g>
<g>
</g>
</svg>
