<?xml version="1.0" encoding="iso-8859-1"?>
<!-- Generator: Adobe Illustrator 19.0.0, SVG Export Plug-In . SVG Version: 6.00 Build 0)  -->
<svg version="1.1" id="Capa_1" xmlns="http://www.w3.org/2000/svg" xmlns:xlink="http://www.w3.org/1999/xlink" x="0px" y="0px"
	 viewBox="0 0 512 512" style="enable-background:new 0 0 512 512;" xml:space="preserve">
<g>
	<g>
		<path d="M504.5,388.78h-30.533c-5.784-18.393-22.506-31.331-42.128-32.027v-49.56c35.984-3.762,64.129-34.271,64.129-71.235
			c0-39.496-32.133-71.629-71.629-71.629c-13.375,0-26.444,3.772-37.707,10.742l-3.094-12.995c-0.805-3.378-3.823-5.763-7.296-5.763
			c-3.473,0-6.491,2.385-7.296,5.763l-8.302,34.87c-1.632-3.38-3.531-6.649-5.704-9.774c-4.006-5.762-4.205-12.252-3.666-16.68
			c0.835-6.859,0.376-13.828-1.362-20.714c-5.18-20.519-21.923-36.402-42.655-40.467c-7.42-1.453-14.924-1.454-22.352,0
			c-20.731,4.064-37.475,19.948-42.654,40.467c-1.738,6.883-2.196,13.852-1.362,20.713c0.539,4.43,0.34,10.92-3.664,16.681
			c-2.797,4.022-5.142,8.282-7.038,12.714l-14.917-77.568c-0.68-3.531-3.77-6.084-7.365-6.084c-3.595,0-6.686,2.553-7.365,6.084
			l-14.072,73.172c-9.599-22.982-32.303-39.176-58.724-39.176c-22.546,0-42.376,11.801-53.677,29.54l-3.099-15.494
			c-0.701-3.506-3.779-6.029-7.354-6.029s-6.653,2.523-7.354,6.029L24.193,330.68c-0.44,2.203,0.13,4.488,1.555,6.226
			c1.424,1.737,3.553,2.745,5.8,2.745h24.565v49.129H7.5c-4.143,0-7.5,3.357-7.5,7.5s3.357,7.5,7.5,7.5h497
			c4.143,0,7.5-3.357,7.5-7.5S508.643,388.78,504.5,388.78z M249.539,195.733c5.229-7.523,7.445-17.131,6.239-27.053
			c-0.61-5.021-0.269-10.146,1.015-15.231c3.709-14.688,16.165-26.511,30.994-29.418c5.532-1.082,11.063-1.081,16.585,0
			c14.831,2.907,27.287,14.729,30.996,29.418c1.284,5.088,1.626,10.212,1.015,15.23c-1.206,9.922,1.01,19.529,6.24,27.054
			c6.599,9.491,10.087,20.629,10.087,32.208l-0.015,2.39l-5.002,21.007c-0.066,0.124-0.136,0.244-0.196,0.373
			c-8.182,17.665-24.932,29.791-43.916,32.349v-16.037c0-4.143-3.357-7.5-7.5-7.5s-7.5,3.357-7.5,7.5v16.036
			c-27.691-3.683-49.13-27.436-49.13-56.117C239.451,216.361,242.939,205.224,249.539,195.733z M127.742,171.312
			c26.805,0,48.612,21.808,48.612,48.613c0,24.254-17.856,44.415-41.112,48.032V251.99c0-4.143-3.357-7.5-7.5-7.5
			s-7.5,3.357-7.5,7.5v15.968c-23.257-3.617-41.113-23.778-41.113-48.032C79.129,193.12,100.937,171.312,127.742,171.312z
			 M63.613,308.619c-4.143,0-7.5,3.357-7.5,7.5v8.532H40.696l22.916-114.58l0.798,3.991c-0.178,1.932-0.282,3.886-0.282,5.863
			c0,10.737,2.685,20.856,7.402,29.737l14.998,74.989H71.113v-8.532C71.113,311.976,67.756,308.619,63.613,308.619z M90.38,388.78
			H71.113v-49.129h24.563c2.247,0,4.376-1.008,5.8-2.745c1.425-1.737,1.995-4.022,1.555-6.226l-11.732-58.663
			c8.395,5.89,18.266,9.802,28.943,11.063v70.799C105.946,360.522,94.896,373.086,90.38,388.78z M200.405,388.78h-0.002h-3.327
			c-2.232-7.688-6.11-14.836-11.415-20.939c-2.718-3.125-7.454-3.457-10.581-0.741c-3.126,2.718-3.458,7.455-0.741,10.581
			c2.891,3.326,5.187,7.082,6.851,11.1h-74.964c6.127-14.946,20.743-25.08,37.549-25.08c3.244,0,6.471,0.383,9.59,1.138
			c4.025,0.969,8.079-1.5,9.054-5.526c0.974-4.026-1.5-8.079-5.526-9.054c-4.272-1.033-8.686-1.558-13.117-1.558
			c-2.899,0-5.746,0.233-8.532,0.659v-66.278c14.81-1.748,28.073-8.597,37.984-18.745l-12.769,66.4
			c-0.422,2.196,0.158,4.468,1.583,6.192s3.545,2.724,5.782,2.724h32.581V388.78z M207.903,300.602c-4.143,0-7.5,3.357-7.5,7.5
			v16.549h-23.501l31.001-161.204l31,161.204h-23.5v-16.549C215.403,303.96,212.046,300.602,207.903,300.602z M240.509,388.78
			h-25.106v-49.129h32.58c2.237,0,4.357-0.999,5.782-2.724c1.425-1.725,2.005-3.996,1.583-6.192l-10.067-52.35
			c11.327,11.406,26.453,19.031,43.3,20.791v50.46c-2.767-0.611-5.621-0.937-8.532-0.937c-21.816,0-39.565,17.749-39.565,39.564
			C240.483,388.438,240.498,388.609,240.509,388.78z M255.458,388.78c0.012-0.171,0.026-0.342,0.026-0.516
			c0-13.545,11.02-24.564,24.565-24.564c7.738,0,14.886,3.627,19.61,9.95c1.196,1.601,2.981,2.658,4.96,2.938
			c1.981,0.277,3.987-0.242,5.58-1.451c2.951-2.238,6.385-3.421,9.93-3.421c9.125,0,16.549,7.424,16.549,16.549v0.515H255.458z
			 M368.742,388.78h-17.064v-0.516c0-17.396-14.152-31.549-31.549-31.549c-4.514,0-8.906,0.973-12.975,2.848
			c-1.136-1.085-2.333-2.086-3.573-3.019v-57.375c13.297-1.411,25.798-6.538,36.18-14.519l-10.896,45.764
			c-0.531,2.232-0.012,4.585,1.41,6.386c1.423,1.801,3.591,2.852,5.886,2.852h32.581V388.78z M416.839,388.78h-14.323
			c3.089-6.192,8.151-11.128,14.323-14.066V388.78z M416.839,358.681c-14.367,4.328-25.863,15.491-30.457,30.099h-2.64v-49.129
			h33.097V358.681z M424.339,260.522c-4.143,0-7.5,3.357-7.5,7.5v24.06c-0.816-0.108-1.628-0.237-2.438-0.38l-14.839-62.325
			c-0.959-4.028-4.998-6.518-9.033-5.559c-4.029,0.959-6.519,5.004-5.559,9.033l21.856,91.8h-23.085v-16.549
			c0-4.143-3.357-7.5-7.5-7.5s-7.5,3.357-7.5,7.5v16.549h-23.086l30.586-128.458l1.799,7.556c0.959,4.028,4.995,6.522,9.033,5.559
			c4.029-0.959,6.519-5.004,5.559-9.033l-2.286-9.601c9.763-7.331,21.715-11.345,33.992-11.345
			c31.226,0,56.629,25.403,56.629,56.629c0,28.682-21.438,52.434-49.129,56.117v-24.053
			C431.839,263.88,428.481,260.522,424.339,260.522z M431.839,388.78v-17.016c11.308,0.597,21.115,7.237,25.994,17.016H431.839z"/>
	</g>
</g>
<g>
</g>
<g>
</g>
<g>
</g>
<g>
</g>
<g>
</g>
<g>
</g>
<g>
</g>
<g>
</g>
<g>
</g>
<g>
</g>
<g>
</g>
<g>
</g>
<g>
</g>
<g>
</g>
<g>
</g>
</svg>
